<mxfile host="app.diagrams.net" agent="Mozilla/5.0 (Windows NT 10.0; Win64; x64) AppleWebKit/537.36 (KHTML, like Gecko) Chrome/132.0.0.0 Safari/537.36" version="26.0.10">
  <diagram id="C5RBs43oDa-KdzZeNtuy" name="Page-1">
    <mxGraphModel dx="1430" dy="786" grid="1" gridSize="12" guides="1" tooltips="1" connect="1" arrows="1" fold="1" page="1" pageScale="1" pageWidth="827" pageHeight="1169" math="0" shadow="0">
      <root>
        <mxCell id="WIyWlLk6GJQsqaUBKTNV-0" />
        <mxCell id="WIyWlLk6GJQsqaUBKTNV-1" parent="WIyWlLk6GJQsqaUBKTNV-0" />
        <mxCell id="YXeB3x0NtvXCBaHHlxhM-72" value="" style="rounded=1;whiteSpace=wrap;html=1;strokeColor=none;fillColor=light-dark(#DBDBDB,#1E4A76);rotation=90;fillStyle=auto;" vertex="1" parent="WIyWlLk6GJQsqaUBKTNV-1">
          <mxGeometry x="332.25" y="413.75" width="178.5" height="79" as="geometry" />
        </mxCell>
        <mxCell id="YXeB3x0NtvXCBaHHlxhM-71" value="" style="rounded=1;whiteSpace=wrap;html=1;strokeColor=none;fillColor=light-dark(#DBDBDB,#1E4A76);fillStyle=auto;" vertex="1" parent="WIyWlLk6GJQsqaUBKTNV-1">
          <mxGeometry x="288" y="364" width="168" height="108" as="geometry" />
        </mxCell>
        <mxCell id="_TdYU7k5JH9Z_Pd-Z_cY-13" style="edgeStyle=orthogonalEdgeStyle;rounded=0;orthogonalLoop=1;jettySize=auto;html=1;exitX=0.5;exitY=1;exitDx=0;exitDy=0;entryX=0.5;entryY=0;entryDx=0;entryDy=0;" parent="WIyWlLk6GJQsqaUBKTNV-1" source="v14WSECoL_stQn1ngE6W-5" target="v14WSECoL_stQn1ngE6W-8" edge="1">
          <mxGeometry relative="1" as="geometry" />
        </mxCell>
        <mxCell id="v14WSECoL_stQn1ngE6W-5" value="Inlet" style="rounded=0;whiteSpace=wrap;html=1;rotation=0;" parent="WIyWlLk6GJQsqaUBKTNV-1" vertex="1">
          <mxGeometry x="346" y="110" width="50" height="50" as="geometry" />
        </mxCell>
        <mxCell id="_TdYU7k5JH9Z_Pd-Z_cY-89" style="edgeStyle=orthogonalEdgeStyle;rounded=0;orthogonalLoop=1;jettySize=auto;html=1;exitX=0.5;exitY=1;exitDx=0;exitDy=0;entryX=0;entryY=0.75;entryDx=0;entryDy=0;curved=1;" parent="WIyWlLk6GJQsqaUBKTNV-1" source="v14WSECoL_stQn1ngE6W-8" target="v14WSECoL_stQn1ngE6W-1" edge="1">
          <mxGeometry relative="1" as="geometry" />
        </mxCell>
        <mxCell id="v14WSECoL_stQn1ngE6W-8" value="" style="shape=image;html=1;verticalAlign=top;verticalLabelPosition=bottom;labelBackgroundColor=#80FF00;imageAspect=0;aspect=fixed;image=https://cdn2.iconfinder.com/data/icons/boxicons-solid-vol-2/24/bxs-leaf-128.png;shadow=0;rotation=0;fontColor=#80FF00;imageBackground=#D3FFA1;imageBorder=#000000;fillColor=#80FF00;fillStyle=auto;" parent="WIyWlLk6GJQsqaUBKTNV-1" vertex="1">
          <mxGeometry x="345" y="188" width="51.38" height="51.38" as="geometry" />
        </mxCell>
        <mxCell id="_TdYU7k5JH9Z_Pd-Z_cY-10" value="Outlet L" style="rounded=0;whiteSpace=wrap;html=1;rotation=0;" parent="WIyWlLk6GJQsqaUBKTNV-1" vertex="1">
          <mxGeometry x="309" y="585" width="50" height="49.76" as="geometry" />
        </mxCell>
        <mxCell id="_TdYU7k5JH9Z_Pd-Z_cY-11" value="&lt;font color=&quot;#ffffff&quot;&gt;LRM&lt;/font&gt;" style="text;html=1;align=center;verticalAlign=middle;whiteSpace=wrap;rounded=0;" parent="WIyWlLk6GJQsqaUBKTNV-1" vertex="1">
          <mxGeometry x="340.6" y="195.69" width="60" height="30" as="geometry" />
        </mxCell>
        <mxCell id="_TdYU7k5JH9Z_Pd-Z_cY-24" value="" style="group" parent="WIyWlLk6GJQsqaUBKTNV-1" vertex="1" connectable="0">
          <mxGeometry x="345.88" y="264" width="55" height="80" as="geometry" />
        </mxCell>
        <mxCell id="_TdYU7k5JH9Z_Pd-Z_cY-26" value="" style="group" parent="_TdYU7k5JH9Z_Pd-Z_cY-24" vertex="1" connectable="0">
          <mxGeometry x="-5" width="60" height="80" as="geometry" />
        </mxCell>
        <mxCell id="v14WSECoL_stQn1ngE6W-1" value="" style="rounded=0;whiteSpace=wrap;html=1;rotation=90;horizontal=0;fillColor=#dae8fc;strokeColor=#6c8ebf;" parent="_TdYU7k5JH9Z_Pd-Z_cY-26" vertex="1">
          <mxGeometry x="-10" y="15" width="80" height="50" as="geometry" />
        </mxCell>
        <mxCell id="_TdYU7k5JH9Z_Pd-Z_cY-23" value="" style="endArrow=none;dashed=1;html=1;rounded=0;entryX=0;entryY=0.5;entryDx=0;entryDy=0;exitX=1;exitY=0.5;exitDx=0;exitDy=0;fontColor=#808080;strokeColor=#808080;" parent="_TdYU7k5JH9Z_Pd-Z_cY-26" source="v14WSECoL_stQn1ngE6W-1" target="v14WSECoL_stQn1ngE6W-1" edge="1">
          <mxGeometry width="50" height="50" relative="1" as="geometry">
            <mxPoint x="-20" y="55" as="sourcePoint" />
            <mxPoint x="30" y="5" as="targetPoint" />
          </mxGeometry>
        </mxCell>
        <mxCell id="_TdYU7k5JH9Z_Pd-Z_cY-25" value="MCT1&lt;div&gt;M02&lt;/div&gt;" style="text;html=1;align=center;verticalAlign=middle;whiteSpace=wrap;rounded=0;" parent="_TdYU7k5JH9Z_Pd-Z_cY-26" vertex="1">
          <mxGeometry y="25" width="60" height="30" as="geometry" />
        </mxCell>
        <mxCell id="_TdYU7k5JH9Z_Pd-Z_cY-48" value="" style="group" parent="WIyWlLk6GJQsqaUBKTNV-1" vertex="1" connectable="0">
          <mxGeometry x="309.00000000000006" y="486" width="55" height="80" as="geometry" />
        </mxCell>
        <mxCell id="_TdYU7k5JH9Z_Pd-Z_cY-49" value="" style="group" parent="_TdYU7k5JH9Z_Pd-Z_cY-48" vertex="1" connectable="0">
          <mxGeometry x="-5" width="60" height="80" as="geometry" />
        </mxCell>
        <mxCell id="_TdYU7k5JH9Z_Pd-Z_cY-50" value="" style="rounded=0;whiteSpace=wrap;html=1;rotation=90;horizontal=0;fillColor=#d5e8d4;strokeColor=#82b366;" parent="_TdYU7k5JH9Z_Pd-Z_cY-49" vertex="1">
          <mxGeometry x="-10" y="13" width="80" height="50" as="geometry" />
        </mxCell>
        <mxCell id="_TdYU7k5JH9Z_Pd-Z_cY-51" value="" style="endArrow=none;dashed=1;html=1;rounded=0;entryX=0;entryY=0.5;entryDx=0;entryDy=0;exitX=1;exitY=0.5;exitDx=0;exitDy=0;fontColor=#808080;strokeColor=#808080;" parent="_TdYU7k5JH9Z_Pd-Z_cY-49" source="_TdYU7k5JH9Z_Pd-Z_cY-50" target="_TdYU7k5JH9Z_Pd-Z_cY-50" edge="1">
          <mxGeometry width="50" height="50" relative="1" as="geometry">
            <mxPoint x="-20" y="55" as="sourcePoint" />
            <mxPoint x="30" y="5" as="targetPoint" />
          </mxGeometry>
        </mxCell>
        <mxCell id="_TdYU7k5JH9Z_Pd-Z_cY-52" value="MCT4&lt;div&gt;M02&lt;/div&gt;" style="text;html=1;align=center;verticalAlign=middle;whiteSpace=wrap;rounded=0;" parent="_TdYU7k5JH9Z_Pd-Z_cY-49" vertex="1">
          <mxGeometry y="25" width="60" height="30" as="geometry" />
        </mxCell>
        <mxCell id="YXeB3x0NtvXCBaHHlxhM-63" value="" style="endArrow=none;html=1;rounded=0;endSize=6;entryX=0.003;entryY=0.022;entryDx=0;entryDy=0;entryPerimeter=0;dashed=1;dashPattern=1 2;" edge="1" parent="_TdYU7k5JH9Z_Pd-Z_cY-49">
          <mxGeometry width="50" height="50" relative="1" as="geometry">
            <mxPoint x="4.999999999999943" y="39.65999999999997" as="sourcePoint" />
            <mxPoint x="54.779999999999916" y="39.89999999999998" as="targetPoint" />
          </mxGeometry>
        </mxCell>
        <mxCell id="_TdYU7k5JH9Z_Pd-Z_cY-90" style="edgeStyle=orthogonalEdgeStyle;rounded=0;orthogonalLoop=1;jettySize=auto;html=1;exitX=1;exitY=0.75;exitDx=0;exitDy=0;entryX=0;entryY=0.75;entryDx=0;entryDy=0;curved=1;" parent="WIyWlLk6GJQsqaUBKTNV-1" source="v14WSECoL_stQn1ngE6W-1" target="_TdYU7k5JH9Z_Pd-Z_cY-45" edge="1">
          <mxGeometry relative="1" as="geometry">
            <Array as="points">
              <mxPoint x="358" y="364" />
              <mxPoint x="321" y="364" />
            </Array>
          </mxGeometry>
        </mxCell>
        <mxCell id="_TdYU7k5JH9Z_Pd-Z_cY-91" style="edgeStyle=orthogonalEdgeStyle;rounded=0;orthogonalLoop=1;jettySize=auto;html=1;exitX=1;exitY=0.75;exitDx=0;exitDy=0;entryX=0;entryY=0.75;entryDx=0;entryDy=0;" parent="WIyWlLk6GJQsqaUBKTNV-1" source="_TdYU7k5JH9Z_Pd-Z_cY-45" target="_TdYU7k5JH9Z_Pd-Z_cY-50" edge="1">
          <mxGeometry relative="1" as="geometry" />
        </mxCell>
        <mxCell id="YXeB3x0NtvXCBaHHlxhM-7" style="edgeStyle=orthogonalEdgeStyle;rounded=0;orthogonalLoop=1;jettySize=auto;html=1;entryX=0.25;entryY=0;entryDx=0;entryDy=0;curved=1;exitX=1;exitY=0.75;exitDx=0;exitDy=0;" edge="1" parent="WIyWlLk6GJQsqaUBKTNV-1" source="_TdYU7k5JH9Z_Pd-Z_cY-50" target="_TdYU7k5JH9Z_Pd-Z_cY-10">
          <mxGeometry relative="1" as="geometry">
            <mxPoint x="320" y="581" as="sourcePoint" />
            <mxPoint x="358.0000000000001" y="621" as="targetPoint" />
          </mxGeometry>
        </mxCell>
        <mxCell id="YXeB3x0NtvXCBaHHlxhM-10" value="" style="endArrow=none;html=1;rounded=0;endSize=6;entryX=0.003;entryY=0.022;entryDx=0;entryDy=0;entryPerimeter=0;dashed=1;dashPattern=1 2;" edge="1" parent="WIyWlLk6GJQsqaUBKTNV-1">
          <mxGeometry width="50" height="50" relative="1" as="geometry">
            <mxPoint x="346" y="264" as="sourcePoint" />
            <mxPoint x="395.78" y="264.23999999999995" as="targetPoint" />
          </mxGeometry>
        </mxCell>
        <mxCell id="YXeB3x0NtvXCBaHHlxhM-24" value="" style="group" vertex="1" connectable="0" parent="WIyWlLk6GJQsqaUBKTNV-1">
          <mxGeometry x="389" y="380" width="60" height="80" as="geometry" />
        </mxCell>
        <mxCell id="YXeB3x0NtvXCBaHHlxhM-25" value="" style="rounded=0;whiteSpace=wrap;html=1;rotation=90;horizontal=0;fillColor=#bac8d3;strokeColor=#23445d;" vertex="1" parent="YXeB3x0NtvXCBaHHlxhM-24">
          <mxGeometry x="-10" y="15" width="80" height="50" as="geometry" />
        </mxCell>
        <mxCell id="YXeB3x0NtvXCBaHHlxhM-26" value="" style="endArrow=none;dashed=1;html=1;rounded=0;entryX=0;entryY=0.5;entryDx=0;entryDy=0;exitX=1;exitY=0.5;exitDx=0;exitDy=0;fontColor=#808080;strokeColor=#808080;" edge="1" parent="YXeB3x0NtvXCBaHHlxhM-24" source="YXeB3x0NtvXCBaHHlxhM-25" target="YXeB3x0NtvXCBaHHlxhM-25">
          <mxGeometry width="50" height="50" relative="1" as="geometry">
            <mxPoint x="-20" y="55" as="sourcePoint" />
            <mxPoint x="30" y="5" as="targetPoint" />
          </mxGeometry>
        </mxCell>
        <mxCell id="YXeB3x0NtvXCBaHHlxhM-27" value="MCT3&lt;div&gt;M13&lt;/div&gt;" style="text;html=1;align=center;verticalAlign=middle;whiteSpace=wrap;rounded=0;" vertex="1" parent="YXeB3x0NtvXCBaHHlxhM-24">
          <mxGeometry y="25" width="60" height="30" as="geometry" />
        </mxCell>
        <mxCell id="YXeB3x0NtvXCBaHHlxhM-28" style="edgeStyle=orthogonalEdgeStyle;rounded=0;orthogonalLoop=1;jettySize=auto;html=1;exitX=1;exitY=0.75;exitDx=0;exitDy=0;entryX=0;entryY=0.75;entryDx=0;entryDy=0;curved=1;" edge="1" parent="WIyWlLk6GJQsqaUBKTNV-1" source="v14WSECoL_stQn1ngE6W-1" target="YXeB3x0NtvXCBaHHlxhM-25">
          <mxGeometry relative="1" as="geometry" />
        </mxCell>
        <mxCell id="_TdYU7k5JH9Z_Pd-Z_cY-44" value="" style="group" parent="WIyWlLk6GJQsqaUBKTNV-1" vertex="1" connectable="0">
          <mxGeometry x="304" y="380" width="60" height="80" as="geometry" />
        </mxCell>
        <mxCell id="_TdYU7k5JH9Z_Pd-Z_cY-45" value="" style="rounded=0;whiteSpace=wrap;html=1;rotation=90;horizontal=0;fillColor=#bac8d3;strokeColor=#23445d;" parent="_TdYU7k5JH9Z_Pd-Z_cY-44" vertex="1">
          <mxGeometry x="-10" y="15" width="80" height="50" as="geometry" />
        </mxCell>
        <mxCell id="_TdYU7k5JH9Z_Pd-Z_cY-46" value="" style="endArrow=none;dashed=1;html=1;rounded=0;entryX=0;entryY=0.5;entryDx=0;entryDy=0;exitX=1;exitY=0.5;exitDx=0;exitDy=0;fontColor=#808080;strokeColor=#808080;" parent="_TdYU7k5JH9Z_Pd-Z_cY-44" source="_TdYU7k5JH9Z_Pd-Z_cY-45" target="_TdYU7k5JH9Z_Pd-Z_cY-45" edge="1">
          <mxGeometry width="50" height="50" relative="1" as="geometry">
            <mxPoint x="-20" y="55" as="sourcePoint" />
            <mxPoint x="30" y="5" as="targetPoint" />
          </mxGeometry>
        </mxCell>
        <mxCell id="_TdYU7k5JH9Z_Pd-Z_cY-47" value="MCT2&lt;div&gt;M02&lt;/div&gt;" style="text;html=1;align=center;verticalAlign=middle;whiteSpace=wrap;rounded=0;" parent="_TdYU7k5JH9Z_Pd-Z_cY-44" vertex="1">
          <mxGeometry y="25" width="60" height="30" as="geometry" />
        </mxCell>
        <mxCell id="YXeB3x0NtvXCBaHHlxhM-32" value="" style="endArrow=classic;startArrow=classic;html=1;rounded=0;" edge="1" parent="_TdYU7k5JH9Z_Pd-Z_cY-44">
          <mxGeometry width="50" height="50" relative="1" as="geometry">
            <mxPoint x="-6" y="80" as="sourcePoint" />
            <mxPoint x="-6" as="targetPoint" />
          </mxGeometry>
        </mxCell>
        <mxCell id="YXeB3x0NtvXCBaHHlxhM-35" value="" style="endArrow=classic;startArrow=classic;html=1;rounded=0;" edge="1" parent="WIyWlLk6GJQsqaUBKTNV-1">
          <mxGeometry width="50" height="50" relative="1" as="geometry">
            <mxPoint x="384" y="460" as="sourcePoint" />
            <mxPoint x="384" y="380" as="targetPoint" />
          </mxGeometry>
        </mxCell>
        <mxCell id="YXeB3x0NtvXCBaHHlxhM-38" value="CSTR" style="rounded=0;whiteSpace=wrap;html=1;rotation=0;fillStyle=dots;fillColor=light-dark(#7d9ab0, #39454e);strokeColor=#23445d;" vertex="1" parent="WIyWlLk6GJQsqaUBKTNV-1">
          <mxGeometry x="394" y="484" width="50" height="50" as="geometry" />
        </mxCell>
        <mxCell id="YXeB3x0NtvXCBaHHlxhM-39" style="edgeStyle=orthogonalEdgeStyle;rounded=0;orthogonalLoop=1;jettySize=auto;html=1;exitX=1;exitY=0.75;exitDx=0;exitDy=0;entryX=0.25;entryY=0;entryDx=0;entryDy=0;" edge="1" parent="WIyWlLk6GJQsqaUBKTNV-1" source="YXeB3x0NtvXCBaHHlxhM-25" target="YXeB3x0NtvXCBaHHlxhM-38">
          <mxGeometry relative="1" as="geometry" />
        </mxCell>
        <mxCell id="YXeB3x0NtvXCBaHHlxhM-40" style="edgeStyle=orthogonalEdgeStyle;rounded=0;orthogonalLoop=1;jettySize=auto;html=1;exitX=1;exitY=0.75;exitDx=0;exitDy=0;curved=1;entryX=0;entryY=0.75;entryDx=0;entryDy=0;" edge="1" parent="WIyWlLk6GJQsqaUBKTNV-1" source="YXeB3x0NtvXCBaHHlxhM-38" target="YXeB3x0NtvXCBaHHlxhM-42">
          <mxGeometry relative="1" as="geometry">
            <mxPoint x="492" y="510" as="sourcePoint" />
            <mxPoint x="456" y="516" as="targetPoint" />
          </mxGeometry>
        </mxCell>
        <mxCell id="YXeB3x0NtvXCBaHHlxhM-41" value="" style="group;rotation=-90;" vertex="1" connectable="0" parent="WIyWlLk6GJQsqaUBKTNV-1">
          <mxGeometry x="480" y="469" width="68" height="80" as="geometry" />
        </mxCell>
        <mxCell id="YXeB3x0NtvXCBaHHlxhM-42" value="" style="rounded=0;whiteSpace=wrap;html=1;rotation=0;horizontal=0;fillColor=#ffe6cc;strokeColor=#d79b00;" vertex="1" parent="YXeB3x0NtvXCBaHHlxhM-41">
          <mxGeometry x="-12" y="15" width="80" height="50" as="geometry" />
        </mxCell>
        <mxCell id="YXeB3x0NtvXCBaHHlxhM-43" value="" style="endArrow=none;dashed=1;html=1;rounded=0;entryX=0;entryY=0.5;entryDx=0;entryDy=0;exitX=1;exitY=0.5;exitDx=0;exitDy=0;fontColor=#808080;strokeColor=#808080;" edge="1" parent="YXeB3x0NtvXCBaHHlxhM-41" source="YXeB3x0NtvXCBaHHlxhM-42" target="YXeB3x0NtvXCBaHHlxhM-42">
          <mxGeometry width="50" height="50" relative="1" as="geometry">
            <mxPoint x="45" y="90" as="sourcePoint" />
            <mxPoint x="-5" y="40" as="targetPoint" />
          </mxGeometry>
        </mxCell>
        <mxCell id="YXeB3x0NtvXCBaHHlxhM-44" value="MCT5&lt;div&gt;M02&lt;/div&gt;" style="text;html=1;align=center;verticalAlign=middle;whiteSpace=wrap;rounded=0;rotation=-90;" vertex="1" parent="YXeB3x0NtvXCBaHHlxhM-41">
          <mxGeometry x="-1" y="25" width="60" height="30" as="geometry" />
        </mxCell>
        <mxCell id="YXeB3x0NtvXCBaHHlxhM-55" value="" style="endArrow=none;html=1;rounded=0;endSize=6;entryX=0;entryY=1;entryDx=0;entryDy=0;dashed=1;dashPattern=1 2;" edge="1" parent="YXeB3x0NtvXCBaHHlxhM-41" target="YXeB3x0NtvXCBaHHlxhM-42">
          <mxGeometry width="50" height="50" relative="1" as="geometry">
            <mxPoint x="-12" y="15" as="sourcePoint" />
            <mxPoint x="37.77999999999997" y="15.239999999999952" as="targetPoint" />
          </mxGeometry>
        </mxCell>
        <mxCell id="YXeB3x0NtvXCBaHHlxhM-46" value="" style="group;rotation=-90;" vertex="1" connectable="0" parent="WIyWlLk6GJQsqaUBKTNV-1">
          <mxGeometry x="582" y="469" width="68" height="80" as="geometry" />
        </mxCell>
        <mxCell id="YXeB3x0NtvXCBaHHlxhM-47" value="" style="rounded=0;whiteSpace=wrap;html=1;rotation=0;horizontal=0;fillColor=#ffe6cc;strokeColor=#d79b00;" vertex="1" parent="YXeB3x0NtvXCBaHHlxhM-46">
          <mxGeometry x="-12" y="15" width="80" height="50" as="geometry" />
        </mxCell>
        <mxCell id="YXeB3x0NtvXCBaHHlxhM-48" value="" style="endArrow=none;dashed=1;html=1;rounded=0;entryX=0;entryY=0.5;entryDx=0;entryDy=0;exitX=1;exitY=0.5;exitDx=0;exitDy=0;fontColor=#808080;strokeColor=#808080;" edge="1" parent="YXeB3x0NtvXCBaHHlxhM-46" source="YXeB3x0NtvXCBaHHlxhM-47" target="YXeB3x0NtvXCBaHHlxhM-47">
          <mxGeometry width="50" height="50" relative="1" as="geometry">
            <mxPoint x="45" y="90" as="sourcePoint" />
            <mxPoint x="-5" y="40" as="targetPoint" />
          </mxGeometry>
        </mxCell>
        <mxCell id="YXeB3x0NtvXCBaHHlxhM-49" value="MCT6&lt;div&gt;M02&lt;/div&gt;" style="text;html=1;align=center;verticalAlign=middle;whiteSpace=wrap;rounded=0;rotation=-90;" vertex="1" parent="YXeB3x0NtvXCBaHHlxhM-46">
          <mxGeometry x="-1" y="25" width="60" height="30" as="geometry" />
        </mxCell>
        <mxCell id="YXeB3x0NtvXCBaHHlxhM-56" value="" style="endArrow=none;html=1;rounded=0;endSize=6;entryX=0;entryY=1;entryDx=0;entryDy=0;dashed=1;dashPattern=1 2;" edge="1" parent="YXeB3x0NtvXCBaHHlxhM-46" target="YXeB3x0NtvXCBaHHlxhM-47">
          <mxGeometry width="50" height="50" relative="1" as="geometry">
            <mxPoint x="-12" y="15" as="sourcePoint" />
            <mxPoint x="37.77999999999997" y="15.239999999999952" as="targetPoint" />
          </mxGeometry>
        </mxCell>
        <mxCell id="YXeB3x0NtvXCBaHHlxhM-53" style="edgeStyle=orthogonalEdgeStyle;rounded=0;orthogonalLoop=1;jettySize=auto;html=1;exitX=1;exitY=0.75;exitDx=0;exitDy=0;entryX=0;entryY=0.75;entryDx=0;entryDy=0;" edge="1" parent="WIyWlLk6GJQsqaUBKTNV-1" source="YXeB3x0NtvXCBaHHlxhM-42" target="YXeB3x0NtvXCBaHHlxhM-47">
          <mxGeometry relative="1" as="geometry" />
        </mxCell>
        <mxCell id="YXeB3x0NtvXCBaHHlxhM-54" value="" style="endArrow=none;html=1;rounded=0;endSize=6;entryX=0.003;entryY=0.022;entryDx=0;entryDy=0;entryPerimeter=0;dashed=1;dashPattern=1 2;" edge="1" parent="WIyWlLk6GJQsqaUBKTNV-1">
          <mxGeometry width="50" height="50" relative="1" as="geometry">
            <mxPoint x="309" y="484" as="sourcePoint" />
            <mxPoint x="358.78" y="484.23999999999995" as="targetPoint" />
          </mxGeometry>
        </mxCell>
        <mxCell id="YXeB3x0NtvXCBaHHlxhM-58" value="" style="endArrow=none;html=1;rounded=0;endSize=6;entryX=0;entryY=1;entryDx=0;entryDy=0;dashed=1;dashPattern=1 2;" edge="1" parent="WIyWlLk6GJQsqaUBKTNV-1">
          <mxGeometry width="50" height="50" relative="1" as="geometry">
            <mxPoint x="650" y="485" as="sourcePoint" />
            <mxPoint x="650" y="535" as="targetPoint" />
          </mxGeometry>
        </mxCell>
        <mxCell id="YXeB3x0NtvXCBaHHlxhM-59" value="Outlet S" style="rounded=0;whiteSpace=wrap;html=1;rotation=-90;" vertex="1" parent="WIyWlLk6GJQsqaUBKTNV-1">
          <mxGeometry x="669" y="484.24" width="50" height="49.76" as="geometry" />
        </mxCell>
        <mxCell id="YXeB3x0NtvXCBaHHlxhM-60" style="edgeStyle=orthogonalEdgeStyle;rounded=0;orthogonalLoop=1;jettySize=auto;html=1;exitX=1;exitY=0.75;exitDx=0;exitDy=0;entryX=0.25;entryY=0;entryDx=0;entryDy=0;" edge="1" parent="WIyWlLk6GJQsqaUBKTNV-1" source="YXeB3x0NtvXCBaHHlxhM-47" target="YXeB3x0NtvXCBaHHlxhM-59">
          <mxGeometry relative="1" as="geometry" />
        </mxCell>
        <mxCell id="YXeB3x0NtvXCBaHHlxhM-61" value="" style="endArrow=none;html=1;rounded=0;endSize=6;entryX=0.003;entryY=0.022;entryDx=0;entryDy=0;entryPerimeter=0;dashed=1;dashPattern=1 2;" edge="1" parent="WIyWlLk6GJQsqaUBKTNV-1">
          <mxGeometry width="50" height="50" relative="1" as="geometry">
            <mxPoint x="347" y="292" as="sourcePoint" />
            <mxPoint x="396.78" y="292.23999999999995" as="targetPoint" />
          </mxGeometry>
        </mxCell>
        <mxCell id="YXeB3x0NtvXCBaHHlxhM-62" value="" style="endArrow=none;html=1;rounded=0;endSize=6;entryX=0.003;entryY=0.022;entryDx=0;entryDy=0;entryPerimeter=0;dashed=1;dashPattern=1 2;" edge="1" parent="WIyWlLk6GJQsqaUBKTNV-1">
          <mxGeometry width="50" height="50" relative="1" as="geometry">
            <mxPoint x="347" y="322" as="sourcePoint" />
            <mxPoint x="396.78" y="322.23999999999995" as="targetPoint" />
          </mxGeometry>
        </mxCell>
        <mxCell id="YXeB3x0NtvXCBaHHlxhM-64" value="" style="endArrow=none;html=1;rounded=0;endSize=6;entryX=0.003;entryY=0.022;entryDx=0;entryDy=0;entryPerimeter=0;dashed=1;dashPattern=1 2;" edge="1" parent="WIyWlLk6GJQsqaUBKTNV-1">
          <mxGeometry width="50" height="50" relative="1" as="geometry">
            <mxPoint x="310" y="563.66" as="sourcePoint" />
            <mxPoint x="359.78" y="563.9" as="targetPoint" />
          </mxGeometry>
        </mxCell>
      </root>
    </mxGraphModel>
  </diagram>
</mxfile>
